<svg version="1" xmlns="http://www.w3.org/2000/svg" width="2672" height="2672" viewBox="0 0 2004.000000 2004.000000"><path d="M119.4 4.7c.3 2.7 36.4 406.6 80.1 897.8 43.7 491.2 79.7 894.8 80 897.1l.6 4 133.7 37.2c73.5 20.4 235.9 65.5 360.7 100.1l227 63 50.5-14c27.8-7.7 98.2-27.2 156.5-43.4 197.6-54.7 319.7-88.6 415.5-115.1 52.5-14.6 96.7-26.8 98.2-27.1 2.4-.5 2.7-1.1 3.2-6.2.4-3.1 36.4-406.6 80.1-896.6 43.7-490.1 79.7-893.4 80-896.3l.6-5.2H118.8l.6 4.7zm1436.6 364c.3 5.2-19.6 220.1-20.4 220.9-.6.7-84.3 36.5-186.1 79.7-101.7 43.2-220.9 93.7-264.7 112.4l-79.8 33.8 255.7.3 255.6.2-.5 5.3c-.3 2.8-14 155.5-30.4 339.2-16.3 183.7-30 334.3-30.4 334.8-.3.4-28.3 8.4-62.1 17.7-33.7 9.4-67.7 18.8-75.4 21-7.7 2.1-31.3 8.7-52.5 14.5-35.5 9.8-145.9 40.4-227.6 63.1-18.7 5.2-34.7 9.4-35.6 9.4-2.2 0-452.2-125-452.9-125.8-.4-.4-7.5-77.4-15.8-171.2-8.3-93.8-15.3-171.7-15.6-173.3l-.5-2.7 111.3.2 111.2.3 7.8 88c4.3 48.4 7.9 88 8 88.1.1.1 55.5 15 123.1 33.3l123 33.1 123-33.2c67.7-18.2 123.3-33.3 123.5-33.4.2-.2 5.9-62.3 12.7-138.1 6.7-75.8 12.5-140.2 12.8-143.1l.6-5.2H891c-305.6 0-383.1-.3-383.5-1.3-.3-1-59.6-664.7-59.5-666.9 0-.5 124.8-.9 277.3-1.1 152.4-.1 401.7-.3 554-.5 152.2-.1 276.7.1 276.7.5z"/><path d="M690 592.2c0 3.2 18.9 216.7 19.6 220.5l.5 3.3H1002V590H690v2.2z"/></svg>